<svg width="520" height="160" viewBox="0 0 520 160" fill="none" xmlns="http://www.w3.org/2000/svg">
<g filter="url(#filter0_d_476_1169)">
<path d="M29.6423 11.6869C31.5526 11.1959 33.4629 10.7048 35.3918 10.2138C35.95 13.7117 43.5787 17.519 51.1083 18.2185V15.3126H53.3101C54.2342 13.8664 54.9536 12.743 55.9832 11.1286C56.2933 13.113 56.1135 14.6332 56.6841 15.1041C58.9045 16.9539 60.821 15.4001 62.7995 13.9336C62.1607 13.6848 61.6459 13.4897 61.1373 13.2879C61.1993 12.9986 61.2551 12.7027 61.3172 12.4134C64.8958 12.9986 68.4683 13.5906 72.047 14.1758C72.078 13.9 72.109 13.6175 72.1401 13.3417C71.6253 12.9717 71.1043 12.6018 69.9631 11.7878H77.474C76.7235 10.9268 76.2211 10.3416 75.7188 9.75637C76.4258 9.62856 77.1515 9.30568 77.8337 9.39313C82.014 9.93126 86.0703 10.2407 90.0087 7.81235C90.877 7.28095 92.6012 8.34376 93.9223 8.707C94.5425 8.8819 95.2434 9.48057 95.7396 9.31241C99.9199 7.8998 104.144 8.95589 108.343 8.86844C109.422 8.84826 110.489 8.11506 111.295 7.81235C112.833 8.14869 114.253 8.71373 115.68 8.72718C123.885 8.82808 132.103 8.51193 140.296 8.87517C154.072 9.4873 167.841 10.4425 181.603 11.391C185.548 11.66 189.468 12.4 193.406 12.8776C193.971 12.9448 194.56 12.7228 195.447 12.5883C195.05 11.6197 194.758 10.9066 194.541 10.382C196.191 9.80346 197.804 9.23841 199.422 8.67337C199.329 8.26304 199.236 7.85271 199.143 7.44239C201.469 8.97607 203.466 9.11733 205.525 6.92443C206.406 5.98942 208.155 5.98942 209.526 5.63963C213.787 4.55663 218.017 3.16421 222.334 2.61262C224.3 2.36373 226.892 1.37491 228.716 4.06558C229.175 4.74498 230.973 4.54991 232.127 4.44228C234.502 4.2203 236.865 3.78306 239.415 3.4131C239.259 3.07676 238.931 2.35028 238.447 1.28073C239.142 1.35473 239.632 1.38163 240.115 1.45563C240.934 1.57671 242.162 2.17538 242.503 1.79869C245.766 -1.77991 248.774 0.978033 252.328 1.96013C247.595 5.78762 242.112 5.45801 237.039 6.49392L237.2 7.46929C241.294 8.28322 245.387 9.09043 249.481 9.90436L249.537 10.4559C248.501 10.7586 247.459 11.0546 246.423 11.3573C246.423 11.5255 246.417 11.7004 246.411 11.8685C248.464 12.2183 250.517 12.5681 252.569 12.9179C252.526 13.335 252.476 13.7453 252.433 14.1624C251.18 14.1624 249.927 14.0816 248.687 14.1893C247.601 14.2834 245.964 14.1758 245.555 14.8552C243.88 17.5997 242.392 17.2768 240.351 15.1646C240.444 15.6826 240.531 16.2005 240.655 16.927C238.466 16.51 236.313 16.0996 233.845 15.6288C234.347 14.5794 234.682 13.8798 235.03 13.1668C234.49 12.9785 233.975 12.8036 232.97 12.4605C234.62 12.3663 235.73 12.2991 236.841 12.2318C236.865 11.8753 236.884 11.5188 236.909 11.1622C234.192 10.9537 231.469 10.7452 228.753 10.5367C228.691 10.8663 228.629 11.2026 228.567 11.5322C229.292 11.9089 230.018 12.2856 230.781 12.6758C230.204 13.0861 229.64 13.4897 228.846 14.0547C229.937 14.2363 230.7 14.3574 231.519 14.4987C231.364 14.8081 231.283 15.131 231.19 15.1377C228.437 15.3463 225.689 15.5817 222.935 15.6826C220.771 15.7633 218.501 16.2207 216.857 13.8933C216.565 13.4762 215.207 13.3013 214.916 13.6242C213.123 15.5884 211.145 14.5929 209.16 14.4112C208.168 14.3171 207.132 14.7408 205.482 15.0435C214.723 19.9069 223.63 22.5505 233.218 21.7299C234.403 21.629 235.557 21.1379 236.717 20.7949C237.293 20.62 237.864 20.1424 238.41 20.1827C245.437 20.6872 252.464 21.2657 259.485 21.8241C262.332 22.0528 265.179 22.3756 268.025 22.4765C270.302 22.5573 272.336 22.6178 274.315 20.2971C275.536 18.8643 278.569 18.9047 280.796 18.8778C283.866 18.8374 286.942 19.3957 290.019 19.6244C297.846 20.1962 305.667 20.8823 313.506 21.2187C318.859 21.4541 324.23 21.1783 329.595 21.1312C330.556 21.1245 331.518 21.1312 332.479 21.1312C332.498 21.4474 332.51 21.7635 332.529 22.0797C328.814 22.3622 325.092 22.6447 321.377 22.934C321.396 23.3376 321.421 23.7412 321.439 24.1448C321.886 24.212 322.332 24.3197 322.785 24.3533C331.84 25.0461 340.883 26.0821 349.951 26.3242C358.529 26.5529 367.119 25.8264 375.709 25.7255C381.725 25.6583 387.747 25.9004 393.763 26.0753C395.128 26.1157 396.492 26.4453 397.857 26.6404C397.938 26.3646 398.018 26.0888 398.105 25.813C397.528 25.4296 396.951 25.0529 396.263 24.5955C397.603 23.7479 398.98 22.8801 400.791 21.7366C399.618 20.6738 398.471 19.7388 397.448 18.6625C397.069 18.2656 396.71 17.1221 396.827 17.0279C398.031 16.0526 399.252 14.9292 400.648 14.4718C401.522 14.1893 403.036 14.6198 403.662 15.3395C405.678 17.6535 408.165 18.2118 410.516 17.0347C414.274 15.1512 417.537 15.4337 420.818 18.0773C419.962 19.2141 419.143 20.2971 418.672 20.9227C417.171 21.1917 416.116 21.4877 415.043 21.5483C414.169 21.5953 413.288 21.3465 412.407 21.2456C410.224 20.9967 408.047 20.7545 405.951 20.5191C406.335 16.3216 403.507 19.5168 402.608 19.1536C401.777 20.6267 401.119 21.8711 400.381 23.055C399.519 24.434 400.679 26.3511 402.738 26.4789C408.785 26.8422 414.832 27.2458 420.886 27.2794C434.698 27.3534 448.405 28.4095 461.982 31.2549C464.76 31.8401 467.626 32.1764 470.454 32.1764C471.769 32.1764 473.078 31.0867 474.393 30.488C473.313 29.7952 472.24 29.0956 470.857 28.2077C470.87 28.1404 470.95 27.5148 470.963 27.4408C468.997 25.443 467.235 23.6537 465.393 21.7837C467.614 21.0639 470.504 22.7658 472.03 19.4966C470.665 19.1334 469.48 18.8172 467.688 18.3464C469.549 17.2095 470.671 16.4965 471.819 15.8306C472.178 15.622 472.718 15.279 472.966 15.427C478.133 18.4607 484.248 17.2163 489.663 20.5056C488.645 20.7142 487.628 20.9227 486.319 21.1917C486.245 21.7366 486.121 22.6783 485.972 23.8017C489.65 23.6739 488.943 25.9408 487.982 28.2144C489.507 28.2144 490.847 28.053 492.131 28.275C492.875 28.4028 493.663 29.0014 494.203 29.627C495.505 31.1136 496.671 32.7348 498.209 34.0465C497.515 36.0577 497.893 37.3089 501.025 36.7237C500.603 38.0488 500.275 39.078 499.915 40.2148C501.546 40.8539 503.183 41.4929 505.193 42.2732C505.807 43.2486 506.756 44.7486 507.457 45.8653C507.333 47.3653 507.233 48.6299 507.085 50.4461C507.085 50.4461 506.427 50.8632 505.484 51.4551C506.781 52.3498 507.804 53.0561 508.834 53.7624L508.629 54.7109C507.345 54.4754 506.061 54.24 505.23 54.0853C503.791 55.3364 502.538 56.4329 501.279 57.5293C501.31 57.7244 501.335 57.9195 501.366 58.1213C503.4 57.6841 505.441 57.2468 507.475 56.8096C507.519 56.8836 507.562 56.9643 507.606 57.0383C505.615 58.0069 503.624 58.9756 501.447 60.0384C504.306 63.8592 507.717 65.191 512.425 64.2695C509.69 66.348 504.511 65.6417 502.712 63.8323C502.11 63.2336 500.703 63.247 499.754 63.4556C497.453 63.9601 495.195 64.7404 492.925 65.413C492.819 65.1574 492.714 64.9018 492.609 64.6462C491.703 66.3413 490.798 68.0364 489.83 69.8392C489.979 69.8728 490.475 69.9805 491.101 70.1217C490.816 70.6531 490.549 71.1509 490.01 72.1666C491.964 71.8572 493.52 71.615 495.412 71.3191C494.382 75.9067 496.324 79.1489 499.716 82.0212C499.208 83.1513 498.594 84.5236 497.862 86.1581C496.541 85.9093 495.176 85.6536 494.234 85.4788C494.147 88.4721 494.066 91.3444 493.967 94.876H501.869C501.068 93.766 500.541 93.0261 500.008 92.2862C500.095 91.9633 500.182 91.6471 500.268 91.3243C503.748 92.2525 507.233 93.1741 510.545 94.0553C509.857 96.2078 509.262 98.0711 508.691 99.8537C512.741 101.246 516.121 102.41 519.501 103.567C519.433 103.984 519.365 104.401 519.297 104.818C517.566 104.724 515.824 104.441 514.106 104.576C512.338 104.717 510.601 105.262 508.796 106.13C510.124 106.278 511.445 106.426 513.064 106.607C509.795 110.172 506.384 111.518 502.042 109.937C502.29 109.076 502.532 108.208 502.954 106.735C501.161 107.179 499.729 107.536 497.403 108.114C499.115 109.345 500.206 110.139 501.472 111.054C501.161 111.612 500.783 112.312 500.219 113.327C501.627 113.469 502.755 113.576 504.021 113.704C500.994 118.312 501 119.2 503.68 120.922C502.607 121.951 501.565 123.128 500.349 124.05C499.561 124.648 498.544 125.112 497.595 125.207C494.184 125.523 493.378 126.357 493.458 130.137C492.137 130.864 488.807 128.785 489.861 132.828C488.075 133.171 486.499 133.48 484.577 133.85C485.178 134.678 485.575 135.223 485.954 135.741C484.564 136.454 483.187 137.16 481.141 138.216C481.507 136.42 481.779 135.095 482.145 133.299C478.883 134.839 478.331 140.416 473.673 139.656C474.213 141.142 474.647 142.326 475.249 143.988C473.996 144.122 472.861 144.243 471.385 144.405C471.881 145.609 472.333 146.698 472.805 147.842C468.314 147.815 464.24 145.259 464.37 142.42C462.36 142.299 460.338 142.178 458.682 142.077C459.948 140.55 460.94 139.138 462.143 137.987C462.925 137.241 464.184 136.265 464.953 136.494C466.113 136.844 467.031 138.142 468.525 139.46C469.052 139.333 470.312 139.03 471.552 138.734C471.905 137.321 472.24 135.983 472.737 134.025C470.553 134.281 468.55 134.51 466.386 134.765C466.373 134.745 465.908 133.682 465.846 133.709C463.793 134.604 461.814 135.687 459.749 136.541C459.197 136.77 458.385 136.413 457.733 136.191C455.284 135.35 452.852 134.456 450.415 133.588L449.968 134.933C452.443 136.225 454.918 137.516 457.181 138.694C454.955 144.573 449.373 143.328 445.18 145.185C443.543 145.911 441.949 146.766 440.473 148.138C441.763 148.333 443.059 148.535 444.349 148.73C444.337 149.019 444.324 149.302 444.312 149.591C442.029 149.591 439.555 150.196 437.508 149.443C434.667 148.407 432.143 146.355 429.166 144.539C430.927 144.438 432.478 144.351 433.892 144.27C430.692 138.216 423.875 143.449 419.738 139.171C420.557 138.351 421.159 137.738 421.767 137.133C421.705 136.891 421.643 136.649 421.581 136.407C417.524 137.2 413.462 137.994 409.623 138.747C409.108 137.227 408.649 135.889 408.134 134.375C409.133 133.965 410.41 133.447 411.787 132.888C407.874 128.072 399.215 128.577 393.205 133.474C393.596 132.35 393.981 131.227 394.458 129.835C392.932 128.698 391.214 127.406 389.248 125.94C389.602 124.083 388.262 121.863 386.054 121.803C382.134 121.695 378.208 121.783 374.288 121.615C372.31 121.534 370.976 121.783 370.468 124.319C369.854 127.373 372.111 126.586 373.358 127.137C373.47 128.409 373.569 129.586 373.674 130.85C371.28 129.66 368.899 128.469 366.461 127.252C365.692 131.314 365.835 131.294 369.196 130.83C370.226 130.689 371.442 132.034 372.589 133.359C365.636 131.052 360.836 136.151 355.266 138.532C353.988 137.005 352.729 135.492 350.887 133.285C343.339 132.539 334.904 131.698 326.953 130.911C326.972 130.897 327.505 130.507 328.032 130.11C328.007 129.835 327.982 129.559 327.964 129.29C324.59 128.947 321.222 128.543 317.842 128.274C314.4 127.998 310.933 128.012 307.509 127.561C305.946 127.352 304.507 125.92 302.963 125.799C301.716 125.698 300.395 126.727 298.72 128.025C300.786 128.725 302.851 129.424 304.91 130.117C304.786 130.548 304.668 130.978 304.544 131.415C303.769 131.153 302.994 130.891 302.225 130.628C302.28 130.285 302.342 129.942 302.398 129.599C299.93 129.633 297.443 128.94 296.283 132.855C295.557 135.303 287.749 135.384 285.975 133.474C284.958 132.377 283.568 131.684 282.198 130.709C283.847 129.512 285.596 128.24 287.693 126.727C285.466 125.698 283.916 124.864 282.291 124.265C280.914 123.76 279.444 123.538 278.309 122.59C279.661 122.22 281.007 121.85 282.359 121.48C282.309 121.097 282.26 120.713 282.204 120.336C274.997 119.987 267.796 119.637 260.26 119.267C260.732 120.289 261.036 120.949 261.724 122.442C259.404 122.247 257.674 122.099 255.95 121.951C256.092 121.09 256.229 120.229 256.458 118.83C239.842 118.251 223.146 117.666 206.456 117.081C206.412 117.41 206.375 117.74 206.332 118.07C208.037 118.379 209.743 118.682 211.759 119.045C209.321 121.184 206.865 123.343 204.409 125.496C200.721 122.074 200.421 119.079 203.51 116.509C202.213 116.852 200.917 117.195 199.937 117.457C196.067 116.913 192.346 116.2 188.6 115.917C184.339 115.594 180.047 115.655 175.767 115.554C171.661 115.46 167.475 114.948 164.082 118.742C166.979 118.413 169.881 118.076 172.92 117.733C173.044 118.13 173.261 118.816 173.472 119.496C173.559 119.159 173.64 118.83 173.727 118.493C175.86 118.668 178.006 118.749 180.109 119.132C180.444 119.193 180.568 120.612 180.797 121.426C179.687 121.83 178.862 122.126 178.043 122.422C178.043 122.597 178.043 122.778 178.043 122.953C179.166 123.175 180.289 123.397 182.217 123.774C178.949 124.897 176.505 125.731 173.336 126.821C175.327 127.339 176.741 127.615 178.105 128.079C180.307 128.819 182.186 129.787 179.085 132.27C180.133 133.279 180.958 134.072 181.777 134.859C181.771 135.155 181.758 135.451 181.752 135.747C180.574 135.747 179.104 136.225 178.291 135.64C177.014 134.725 176.09 133.158 175.234 131.711C175.054 131.409 175.68 130.131 176.183 129.875C176.834 129.545 177.739 129.794 178.633 129.034C175.668 128.294 172.703 127.548 169.739 126.808C169.639 127.11 169.546 127.406 169.447 127.709C170.824 128.287 172.195 128.873 174.068 129.666C172.759 130.299 171.804 130.756 170.849 131.214C170.917 130.924 170.991 130.642 171.06 130.353C168.777 128.731 166.495 127.11 163.474 124.971C165.192 124.971 166.209 125.2 167.084 124.911C167.983 124.615 168.74 123.814 169.565 123.242C168.647 122.2 167.878 120.653 166.768 120.262C165.713 119.893 164.293 120.733 162.904 121.076C163.096 120.256 163.22 119.758 163.319 119.334C161.49 119.435 159.778 119.529 158.066 119.617C157.985 119.388 157.898 119.159 157.818 118.931C159.598 118.137 161.384 117.343 163.164 116.549C163.139 116.341 163.115 116.139 163.09 115.93H153.972C154.425 116.583 154.853 117.202 155.48 118.117C152.751 117.767 149.736 116.267 149.172 120.7C147.02 120.061 145.029 119.475 142.728 118.789C143.348 117.807 143.943 116.872 145.221 114.854C142.12 115.09 139.782 115.271 137.233 115.46C137.822 117.417 138.343 119.139 138.74 120.451C136.594 121.487 134.758 122.368 132.916 123.256C132.699 122.872 132.482 122.489 132.265 122.106C133.207 121.527 134.144 120.942 135.087 120.363C134.913 120.061 134.739 119.758 134.572 119.462C133.282 119.919 131.998 120.377 130.714 120.834C130.77 119.798 130.826 118.857 130.875 117.908C131.818 117.457 132.761 117.007 133.71 116.556C133.666 116.146 133.629 115.729 133.586 115.318C131.675 115.184 129.697 114.693 127.898 115.103C127.204 115.258 126.298 117.659 126.565 118.729C127.191 121.238 128.152 123.377 124.369 123.168C124.295 123.168 124.189 123.969 124.177 124.003C122.626 125.065 121.212 126.135 119.699 127.003C119.221 127.272 118.415 127.137 117.863 126.902C117.268 126.646 116.74 125.603 116.288 125.671C113.621 126.088 110.978 126.713 108.343 127.346C108.237 127.373 108.287 128.173 108.256 128.879C109.198 128.758 110.036 128.651 111.009 128.523C110.966 128.873 110.978 129.364 110.885 129.384C109.304 129.814 107.685 130.615 106.128 130.494C102.86 130.245 99.616 129.539 96.3722 128.926C95.8884 128.832 95.4791 128.24 94.4185 127.373C96.8436 127.023 98.5926 126.767 100.348 126.512C100.323 126.236 100.292 125.96 100.267 125.684H96.4528C96.4404 125.536 96.4342 125.388 96.4218 125.234C97.3274 124.978 98.2391 124.729 99.8703 124.272C97.2343 122.435 95.1938 122.852 93.0602 123.532C91.9376 123.888 90.5855 124.393 89.587 124.029C85.2144 122.422 83.7196 123.209 83.2048 128.624C81.9954 127.904 81.0589 127.225 80.0355 126.76C78.6462 126.128 77.2135 125.361 75.7498 125.2C73.5728 124.958 71.3524 125.227 69.1506 125.2C68.2513 125.193 67.2341 124.635 66.4712 124.924C63.5127 126.047 61.3854 124.89 59.4813 121.924C57.3725 123.989 55.4746 125.852 53.1612 128.126C52.02 127.003 50.4446 125.449 48.801 123.841C47.9575 125.193 47.3869 126.101 46.6985 127.211C45.6937 126.202 44.9991 125.503 44.2982 124.803C44.323 124.446 44.3416 124.083 44.3664 123.727C46.2643 123.404 48.1684 123.074 50.916 122.603C49.6197 121.103 48.646 119.973 47.6598 118.836C48.094 118.668 48.7266 118.419 49.4399 118.137C48.8568 116.052 48.2862 114 47.5916 111.518C44.6145 111.968 41.7863 112.312 38.9891 112.87C38.0711 113.051 37.2152 113.724 36.3779 114.262C33.7296 115.951 31.2239 117.982 28.4267 119.287C26.138 120.357 23.837 119.159 22.5035 116.96C20.7483 114.06 18.6023 113.045 15.5136 113.906C14.6205 114.155 13.5909 113.825 12.5427 113.751C13.7336 111.921 14.7135 110.415 16.1462 108.208H11.0542C11.2465 107.912 11.4325 107.616 11.6248 107.314C10.5022 106.251 9.37337 105.188 8.00268 103.896C11.017 102.935 14.3662 101.959 17.6472 100.755C18.7512 100.351 19.6691 99.3627 20.6677 98.6362C19.6505 97.5599 18.6891 95.6428 17.61 95.5688C14.6825 95.3603 11.7054 95.932 9.52843 96.1204C8.57949 94.4723 7.92825 93.3423 7.05374 91.822C7.01032 91.896 7.37625 91.3242 8.15774 90.1269C6.19783 90.4969 4.86435 90.7525 3.53086 91.0081C3.41302 90.8534 3.29518 90.6987 3.17734 90.5507C4.32475 89.7906 5.47837 89.0574 6.60718 88.2636C7.98407 87.295 9.46021 86.4272 10.6634 85.2366C11.6248 84.2814 12.245 82.9226 13.225 81.4158C11.693 81.0459 10.1797 80.6759 8.67872 80.3194C8.90201 80.01 9.19971 79.5929 9.67729 78.927C8.08951 78.5435 6.61338 78.187 5.13724 77.8305C5.06282 77.5614 4.98219 77.2924 4.90776 77.0233C7.16538 76.1354 9.4416 75.308 11.6558 74.3057C12.1892 74.0636 12.6047 73.2833 12.8714 72.6509C13.2126 71.8505 13.3428 70.9424 13.5661 70.0746C13.2932 69.9872 12.828 69.8459 11.8729 69.5567C14.0251 68.7293 15.6997 68.0768 18.224 67.1082C16.2641 66.1597 15.0484 65.5745 13.901 65.0162C14.1987 64.5318 14.4344 64.1551 14.7941 63.5699C11.0232 63.7784 7.59333 63.9735 4.16969 64.1619C4.15109 63.9668 4.13248 63.7784 4.11387 63.5834C5.2985 63.3345 6.48933 63.0923 7.67396 62.8434C7.63675 62.5475 7.60574 62.2515 7.56852 61.9555C5.31711 62.2044 3.05949 62.4466 0.80808 62.6954C0.764664 62.4466 0.715047 62.1977 0.671631 61.9488C3.54327 61.0743 6.55756 60.5496 9.24313 59.2312C12.6606 57.5495 15.9478 55.4373 18.9931 53.0695C20.0474 52.2489 20.2149 50.0964 20.9033 48.2532C18.0317 47.2308 18.193 44.4796 19.1605 41.8831C13.9878 38.6677 9.52223 42.8113 4.83333 42.4683L4.53563 41.5198C7.10956 40.4839 9.64007 39.2462 12.2822 38.4995C13.8266 38.0623 15.5694 38.3784 17.2192 38.4255C18.9372 38.4726 19.6753 37.9681 20.3948 35.8761C21.2693 33.3469 23.285 31.0733 25.2573 29.2571C27.1552 27.5014 28.3956 25.8937 27.825 23.0819C27.7568 22.7322 28.4701 22.194 29.0097 21.5012C27.2979 20.4854 25.6419 19.5033 24.7425 18.9652C24.0231 16.7723 23.5207 15.2386 23.0121 13.7049C24.3828 13.2879 26.0202 12.7834 27.6576 12.2856C28.4143 15.427 25.1271 13.335 24.6061 14.8821H31.0254C30.461 13.5839 30.0578 12.6488 29.6547 11.7206L29.6423 11.6869ZM300.116 123.72C300.196 124.117 300.277 124.507 300.358 124.904C304.749 124.904 309.171 124.527 313.519 125.018C317.414 125.455 321.228 126.814 325.067 127.81C329.366 128.926 332.287 127.682 333.261 124.198C335.245 124.332 337.236 124.467 339.221 124.601C338.439 122.899 337.869 121.662 337.335 120.491C324.156 119.765 310.74 119.025 297.331 118.292C297.294 118.756 297.263 119.227 297.226 119.691C298.782 119.98 300.339 120.269 301.964 120.579C301.269 121.769 300.693 122.751 300.122 123.727L300.116 123.72ZM342.614 129.922C343.029 128.227 343.432 127.097 343.55 125.926C343.643 125.038 343.37 124.117 343.259 123.202C342.465 123.511 341.671 123.821 340.883 124.13C339.525 124.662 338.185 125.274 336.796 125.684C336.114 125.886 335.332 125.718 334.594 125.718C334.594 125.873 334.594 126.027 334.6 126.182C337.205 127.393 339.81 128.604 342.614 129.909V129.922ZM68.7226 119.018C68.673 118.554 68.6234 118.09 68.5676 117.626C65.975 117.626 63.3763 117.552 60.79 117.706C60.4116 117.727 59.7666 118.85 59.8286 119.381C59.8906 119.919 60.7589 120.828 61.1435 120.76C63.6864 120.303 66.1983 119.623 68.7226 119.018ZM460.853 79.0548C461.07 78.5301 461.287 77.9987 461.504 77.474C460.841 77.0031 459.948 75.9672 459.551 76.1556C456.623 77.548 454.031 75.8192 451.308 75.4022C450.923 75.3416 450.489 75.678 450.074 75.8327C450.061 76.1556 450.055 76.4784 450.043 76.8013C453.646 77.5547 457.25 78.3014 460.853 79.0548ZM462.112 90.6449C463.743 93.7459 461.721 93.6113 459.588 93.8939C460.996 94.8558 461.945 95.5083 463.148 96.3356C464.215 91.5597 468.445 93.8737 471.211 91.6539C467.893 91.2839 465.219 90.9879 462.112 90.6449ZM61.2179 111.693L61.2303 112.439H69.6468C69.6344 112.042 69.6219 111.646 69.6095 111.249C66.8123 111.397 64.0151 111.551 61.2179 111.699V111.693ZM250.07 23.6672C250.089 23.943 250.113 24.2255 250.132 24.5013H256.812C256.775 24.0102 256.731 23.5192 256.694 23.0349C254.486 23.2434 252.278 23.4586 250.07 23.6672ZM271.331 117.679C278.898 119.603 280.027 119.59 280.858 117.679H271.331ZM34.1885 15.5144C34.2878 16.1602 34.3932 16.8059 34.4925 17.4517C35.981 17.1759 37.4695 16.9001 38.9581 16.6243L38.6976 14.7812L34.1947 15.5144H34.1885Z" fill="#DF0025"/>
</g>
<defs>
<filter id="filter0_d_476_1169" x="0.671631" y="0.0179443" width="518.83" height="159.985" filterUnits="userSpaceOnUse" color-interpolation-filters="sRGB">
<feFlood flood-opacity="0" result="BackgroundImageFix"/>
<feColorMatrix in="SourceAlpha" type="matrix" values="0 0 0 0 0 0 0 0 0 0 0 0 0 0 0 0 0 0 127 0" result="hardAlpha"/>
<feOffset dy="10.1824"/>
<feComposite in2="hardAlpha" operator="out"/>
<feColorMatrix type="matrix" values="0 0 0 0 0 0 0 0 0 0 0 0 0 0 0 0 0 0 0.5 0"/>
<feBlend mode="normal" in2="BackgroundImageFix" result="effect1_dropShadow_476_1169"/>
<feBlend mode="normal" in="SourceGraphic" in2="effect1_dropShadow_476_1169" result="shape"/>
</filter>
</defs>
</svg>
