<svg width="39" height="39" viewBox="0 0 39 39" fill="none" xmlns="http://www.w3.org/2000/svg">
<path d="M1.586 4.63572L1.586 4.63572C0.714463 3.76393 0.714835 2.35079 1.58683 1.47946C2.45874 0.608219 3.87195 0.608589 4.7434 1.48029L1.586 4.63572ZM1.586 4.63572L16.3239 19.3779M1.586 4.63572L16.3239 19.3779M16.3239 19.3779L1.58215 34.1161C0.710378 34.9876 0.710381 36.4008 1.58215 37.2723C2.45383 38.1438 3.86703 38.1438 4.73871 37.2723L19.4799 22.5347L34.217 37.2761C35.0885 38.1478 36.5017 38.1482 37.3736 37.277C38.2456 36.4056 38.246 34.9925 37.3744 34.1207L22.6367 19.3787L37.3784 4.64055C38.2501 3.76899 38.2501 2.35585 37.3784 1.48429C36.5067 0.612818 35.0935 0.612817 34.2218 1.48429L19.4807 16.2218L4.7434 1.48029L16.3239 19.3779Z" fill="white" stroke="white" stroke-width="1.3455" stroke-linecap="round"/>
</svg>
