<svg width="32" height="32" viewBox="0 0 32 32" fill="none" xmlns="http://www.w3.org/2000/svg">
<g filter="url(#filter0_dd_471_197)">
<path d="M25.9997 13.8589C26.0076 14.739 25.8356 15.0747 25.437 15.0929C25.0384 15.111 24.8509 14.7753 24.8274 14.0495C24.7336 11.4818 23.9287 9.24977 22.4203 7.36256C22.4001 7.33715 22.3788 7.31174 22.3573 7.28607C22.2789 7.19255 22.1975 7.09536 22.1545 6.98148C22.0295 6.66392 22.0608 6.34636 22.3265 6.13768C22.5922 5.92899 22.8657 5.95621 23.108 6.22841C24.0381 7.30812 24.7493 8.55114 25.2573 9.96655C25.7106 11.2549 25.945 12.5978 25.9997 13.8589Z" fill="white"/>
<path d="M8.81356 6.33729C7.03946 8.46948 6.13286 11.0281 6 13.8862V14.2037C6 14.7663 6.21883 15.0929 6.58616 15.0929C6.95349 15.0929 7.15669 14.7663 7.17232 14.2037C7.24266 11.5271 8.06328 9.21348 9.65763 7.2809C9.97025 6.89982 10.0093 6.49153 9.76705 6.20119C9.51695 5.90178 9.134 5.94714 8.81356 6.33729Z" fill="white"/>
<path d="M14.5053 23.0914H14.5061C14.9998 23.0934 15.4937 23.0954 15.9882 23.0954C17.8013 23.0954 19.6067 23.0954 21.4199 23.1045C22.2093 23.1045 22.4203 22.6871 22.0686 21.8615C22.0424 21.804 22.0183 21.744 21.994 21.6833C21.9531 21.5813 21.9115 21.4773 21.8576 21.3806C21.1151 20.0831 20.8494 18.6677 20.99 17.1253C21.0144 16.8211 21.0055 16.5113 20.9967 16.2047V16.2046C20.9942 16.118 20.9918 16.0317 20.99 15.9458C20.9275 13.5232 19.9897 11.7449 18.1218 10.647C17.942 10.5382 17.8248 10.4293 17.7623 10.1752C17.5278 9.22255 16.8322 8.64187 15.996 8.64187C15.1675 8.64187 14.472 9.23163 14.2375 10.1843C14.1828 10.4202 14.089 10.5382 13.9092 10.6289C13.4169 10.8829 12.9792 11.2277 12.5884 11.6632C11.5021 12.8609 11.0019 14.358 11.0097 16.0909C11.0097 16.3957 11.0169 16.7022 11.024 17.009C11.0405 17.7161 11.0571 18.4254 10.9863 19.1214C10.9069 19.8655 10.5805 20.514 10.255 21.1605C10.1321 21.4049 10.0092 21.6489 9.89991 21.8978C9.57166 22.6418 9.96244 23.1317 10.5564 23.1136C11.8748 23.0806 13.1891 23.086 14.5053 23.0914Z" fill="white"/>
<path d="M22.8345 15.0747C23.2409 15.1746 23.5144 14.7663 23.4988 13.995C23.4832 13.823 23.4598 13.5424 23.4364 13.2616L23.4364 13.2615L23.4363 13.2601C23.2174 11.3457 22.5141 9.70343 21.3574 8.31524C21.0838 7.9886 20.7399 7.97046 20.4899 8.24265C20.2398 8.51485 20.2476 8.89592 20.5055 9.24977C20.5715 9.34096 20.6412 9.43068 20.7112 9.5207C20.8154 9.65461 20.92 9.78919 21.0135 9.93026C21.8654 11.2096 22.2952 12.6704 22.3265 14.2854C22.3343 14.7118 22.475 14.9931 22.8345 15.0747Z" fill="white"/>
<path d="M8.50876 14.1584C8.61036 11.8901 9.29031 9.9847 10.5955 8.38782C10.9081 8.00675 11.252 7.95231 11.5177 8.23358C11.7834 8.51485 11.7756 8.92314 11.463 9.30421C10.3219 10.7015 9.7436 12.3619 9.68108 14.2763C9.66545 14.7753 9.45443 15.0747 9.11055 15.0838C8.75886 15.0929 8.51658 14.7572 8.50876 14.2582C8.50095 14.1946 8.50876 14.1402 8.50876 14.1584Z" fill="white"/>
<path d="M16.3086 25.9807C17.2308 25.89 17.9498 25.3909 18.536 24.4655H13.4559C14.2219 25.6087 15.1441 26.1077 16.3086 25.9807Z" fill="white"/>
</g>
<defs>
<filter id="filter0_dd_471_197" x="0" y="0" width="32" height="32" filterUnits="userSpaceOnUse" color-interpolation-filters="sRGB">
<feFlood flood-opacity="0" result="BackgroundImageFix"/>
<feColorMatrix in="SourceAlpha" type="matrix" values="0 0 0 0 0 0 0 0 0 0 0 0 0 0 0 0 0 0 127 0" result="hardAlpha"/>
<feOffset/>
<feGaussianBlur stdDeviation="3"/>
<feComposite in2="hardAlpha" operator="out"/>
<feColorMatrix type="matrix" values="0 0 0 0 1 0 0 0 0 1 0 0 0 0 1 0 0 0 0.6 0"/>
<feBlend mode="normal" in2="BackgroundImageFix" result="effect1_dropShadow_471_197"/>
<feColorMatrix in="SourceAlpha" type="matrix" values="0 0 0 0 0 0 0 0 0 0 0 0 0 0 0 0 0 0 127 0" result="hardAlpha"/>
<feOffset dy="1.98086"/>
<feGaussianBlur stdDeviation="0.990432"/>
<feComposite in2="hardAlpha" operator="out"/>
<feColorMatrix type="matrix" values="0 0 0 0 0 0 0 0 0 0 0 0 0 0 0 0 0 0 0.25 0"/>
<feBlend mode="normal" in2="effect1_dropShadow_471_197" result="effect2_dropShadow_471_197"/>
<feBlend mode="normal" in="SourceGraphic" in2="effect2_dropShadow_471_197" result="shape"/>
</filter>
</defs>
</svg>
