<svg width="298" height="54" viewBox="0 0 298 54" fill="none" xmlns="http://www.w3.org/2000/svg">
<g filter="url(#filter0_diiii_73_16)">
<path d="M2.72169 8.11877C2.72169 4.1289 5.95613 0.89447 9.946 0.89447H288.054C292.044 0.89447 295.278 4.1289 295.278 8.11878V40.4792C295.278 44.4691 292.044 47.7035 288.054 47.7035H9.94599C5.95612 47.7035 2.72169 44.4691 2.72169 40.4792V8.11877Z" fill="#DF0025"/>
<path d="M9.946 1.57175H288.054C291.67 1.57175 294.601 4.50295 294.601 8.11878V40.4792C294.601 44.095 291.67 47.0262 288.054 47.0262H9.94599C6.33017 47.0262 3.39897 44.095 3.39897 40.4792V8.11877C3.39897 4.50295 6.33018 1.57175 9.946 1.57175Z" stroke="url(#paint0_linear_73_16)" stroke-width="1.35456"/>
<g filter="url(#filter1_dd_73_16)">
<path d="M131.968 29.4977L130.978 31.3697H118.18L118.468 29.4977L119.152 25.3577L119.44 23.4857L119.98 20.1557L120.286 18.3017H125.524L125.218 20.1557L124.696 23.4857L124.39 25.3577L123.742 29.3357C123.724 29.4257 123.796 29.4977 123.868 29.4977H128.206H131.968ZM134.405 21.0197C134.405 20.9657 134.459 20.9297 134.513 20.9297H144.197C144.539 21.3257 144.701 21.5237 145.043 21.9377L143.531 31.2977C143.531 31.3337 143.495 31.3697 143.441 31.3697H133.685C133.361 30.9917 133.199 30.8297 132.875 30.4517L134.405 21.0197ZM141.533 25.0697L141.911 22.7297C141.929 22.5677 141.803 22.4237 141.641 22.4237H138.599C138.473 22.4237 138.347 22.5137 138.329 22.6397L137.951 25.0697L137.699 26.5637L137.213 29.5697C137.195 29.7317 137.321 29.8757 137.483 29.8757H140.525C140.651 29.8757 140.777 29.7857 140.795 29.6597L141.299 26.5637L141.533 25.0697ZM149.188 29.8757H152.536C152.59 29.8757 152.644 29.8397 152.662 29.7857L153.166 26.5997C153.166 26.5817 153.166 26.5457 153.148 26.5277L152.374 25.0697H156.424L155.398 31.3697H145.552C145.066 31.3697 144.688 30.9377 144.76 30.4337L146.182 21.5957C146.254 21.2177 146.596 20.9297 146.992 20.9297H150.484H157.09L156.856 22.4237H150.646C150.412 22.4237 150.214 22.5857 150.178 22.8197L149.062 29.7497C149.062 29.8217 149.116 29.8757 149.188 29.8757ZM162.365 21.8657L160.835 31.3697H156.641L158.315 20.9297H161.573C161.897 21.3077 162.041 21.4877 162.365 21.8657ZM173.662 20.9297H176.668L176.434 22.4237L176.002 25.0697L175.768 26.5637L175.228 29.8757L174.994 31.3697H173.5H171.988H170.494L169.936 29.8757L168.676 26.5637L168.1 25.0697L167.74 24.1157C167.704 24.0077 167.542 24.0257 167.524 24.1337L167.38 25.0697L167.146 26.5637L166.606 29.8757L166.372 31.3697H162.178L162.412 29.8757L162.952 26.5637L163.186 25.0697L163.618 22.4237L163.852 20.9297H166.516H168.046H169.54L170.098 22.4237L171.106 25.0697L171.682 26.5637L172.294 28.1837C172.33 28.2917 172.474 28.2737 172.492 28.1657L172.762 26.5637L172.996 25.0697L173.428 22.4237L173.662 20.9297Z" fill="white"/>
</g>
</g>
<defs>
<filter id="filter0_diiii_73_16" x="-5.40565" y="-3.62072" width="303.851" height="57.6455" filterUnits="userSpaceOnUse" color-interpolation-filters="sRGB">
<feFlood flood-opacity="0" result="BackgroundImageFix"/>
<feColorMatrix in="SourceAlpha" type="matrix" values="0 0 0 0 0 0 0 0 0 0 0 0 0 0 0 0 0 0 127 0" result="hardAlpha"/>
<feOffset dy="4"/>
<feGaussianBlur stdDeviation="1"/>
<feComposite in2="hardAlpha" operator="out"/>
<feColorMatrix type="matrix" values="0 0 0 0 0 0 0 0 0 0 0 0 0 0 0 0 0 0 0.5 0"/>
<feBlend mode="normal" in2="BackgroundImageFix" result="effect1_dropShadow_73_16"/>
<feBlend mode="normal" in="SourceGraphic" in2="effect1_dropShadow_73_16" result="shape"/>
<feColorMatrix in="SourceAlpha" type="matrix" values="0 0 0 0 0 0 0 0 0 0 0 0 0 0 0 0 0 0 127 0" result="hardAlpha"/>
<feMorphology radius="1.58354" operator="erode" in="SourceAlpha" result="effect2_innerShadow_73_16"/>
<feOffset dx="3.16709"/>
<feGaussianBlur stdDeviation="3.95886"/>
<feComposite in2="hardAlpha" operator="arithmetic" k2="-1" k3="1"/>
<feColorMatrix type="matrix" values="0 0 0 0 0 0 0 0 0 0 0 0 0 0 0 0 0 0 0.25 0"/>
<feBlend mode="normal" in2="shape" result="effect2_innerShadow_73_16"/>
<feColorMatrix in="SourceAlpha" type="matrix" values="0 0 0 0 0 0 0 0 0 0 0 0 0 0 0 0 0 0 127 0" result="hardAlpha"/>
<feOffset dx="-2.37532" dy="-3.16709"/>
<feGaussianBlur stdDeviation="1.58354"/>
<feComposite in2="hardAlpha" operator="arithmetic" k2="-1" k3="1"/>
<feColorMatrix type="matrix" values="0 0 0 0 1 0 0 0 0 1 0 0 0 0 1 0 0 0 0.15 0"/>
<feBlend mode="normal" in2="effect2_innerShadow_73_16" result="effect3_innerShadow_73_16"/>
<feColorMatrix in="SourceAlpha" type="matrix" values="0 0 0 0 0 0 0 0 0 0 0 0 0 0 0 0 0 0 127 0" result="hardAlpha"/>
<feOffset dx="-8.12735" dy="6.32127"/>
<feGaussianBlur stdDeviation="4.15398"/>
<feComposite in2="hardAlpha" operator="arithmetic" k2="-1" k3="1"/>
<feColorMatrix type="matrix" values="0 0 0 0 0 0 0 0 0 0 0 0 0 0 0 0 0 0 0.25 0"/>
<feBlend mode="normal" in2="effect3_innerShadow_73_16" result="effect4_innerShadow_73_16"/>
<feColorMatrix in="SourceAlpha" type="matrix" values="0 0 0 0 0 0 0 0 0 0 0 0 0 0 0 0 0 0 127 0" result="hardAlpha"/>
<feOffset dy="-4.51519"/>
<feGaussianBlur stdDeviation="2.70912"/>
<feComposite in2="hardAlpha" operator="arithmetic" k2="-1" k3="1"/>
<feColorMatrix type="matrix" values="0 0 0 0 0 0 0 0 0 0 0 0 0 0 0 0 0 0 0.25 0"/>
<feBlend mode="normal" in2="effect4_innerShadow_73_16" result="effect5_innerShadow_73_16"/>
</filter>
<filter id="filter1_dd_73_16" x="108.18" y="8.30176" width="78.4881" height="33.068" filterUnits="userSpaceOnUse" color-interpolation-filters="sRGB">
<feFlood flood-opacity="0" result="BackgroundImageFix"/>
<feColorMatrix in="SourceAlpha" type="matrix" values="0 0 0 0 0 0 0 0 0 0 0 0 0 0 0 0 0 0 127 0" result="hardAlpha"/>
<feOffset/>
<feGaussianBlur stdDeviation="5"/>
<feComposite in2="hardAlpha" operator="out"/>
<feColorMatrix type="matrix" values="0 0 0 0 1 0 0 0 0 1 0 0 0 0 1 0 0 0 0.6 0"/>
<feBlend mode="normal" in2="BackgroundImageFix" result="effect1_dropShadow_73_16"/>
<feColorMatrix in="SourceAlpha" type="matrix" values="0 0 0 0 0 0 0 0 0 0 0 0 0 0 0 0 0 0 127 0" result="hardAlpha"/>
<feOffset dy="2.28207"/>
<feGaussianBlur stdDeviation="1.14104"/>
<feComposite in2="hardAlpha" operator="out"/>
<feColorMatrix type="matrix" values="0 0 0 0 0 0 0 0 0 0 0 0 0 0 0 0 0 0 0.25 0"/>
<feBlend mode="normal" in2="effect1_dropShadow_73_16" result="effect2_dropShadow_73_16"/>
<feBlend mode="normal" in="SourceGraphic" in2="effect2_dropShadow_73_16" result="shape"/>
</filter>
<linearGradient id="paint0_linear_73_16" x1="7.70641" y1="2.4471" x2="273.958" y2="96.8726" gradientUnits="userSpaceOnUse">
<stop stop-color="#838383"/>
<stop offset="0.136293" stop-color="#FDFDFD"/>
<stop offset="0.33341" stop-color="#5E5E5E"/>
<stop offset="0.485" stop-color="white"/>
<stop offset="0.69" stop-color="#818181"/>
<stop offset="0.9" stop-color="white"/>
</linearGradient>
</defs>
</svg>
