<svg width="32" height="30" viewBox="0 0 32 30" fill="none" xmlns="http://www.w3.org/2000/svg">
<g filter="url(#filter0_dd_148_377)">
<path d="M23.8581 18.5414C23.8581 19.5885 23.8581 20.6449 23.8581 21.692C23.8492 23.0357 22.9376 23.9901 21.6329 23.9901C20.8285 23.9901 20.0242 23.9808 19.2199 23.9994C18.925 24.0086 18.8446 23.916 18.8446 23.6102C18.8625 22.2943 18.8535 20.9877 18.8535 19.6719C18.8535 18.2634 17.942 17.3182 16.5925 17.3182C16.1725 17.3182 15.7614 17.3182 15.3414 17.3182C14.0724 17.3274 13.143 18.2819 13.134 19.5977C13.1251 20.9229 13.1251 22.248 13.143 23.5824C13.143 23.8974 13.0804 24.0086 12.7587 23.9994C11.9276 23.9716 11.0875 23.9994 10.2564 23.9901C9.07677 23.9716 8.13841 22.9986 8.13841 21.7754C8.12947 19.6163 8.13841 17.4572 8.13841 15.2888C8.13841 14.5011 8.46907 13.8803 9.0857 13.4447C11.2305 11.9435 13.3843 10.4609 15.5291 8.96896C15.8508 8.74656 16.1546 8.74656 16.4764 8.97823C18.6212 10.4701 20.7839 11.9528 22.9197 13.454C23.5542 13.8988 23.8581 14.5475 23.8581 15.3444C23.8492 16.41 23.8581 17.4757 23.8581 18.5414Z" fill="white"/>
<path d="M15.9848 6.00365C16.4674 5.98512 16.8785 6.15191 17.2539 6.42065C20.0153 8.4037 22.7857 10.3867 25.5471 12.3698C26.0208 12.7034 26.1191 13.1204 25.8599 13.5096C25.6097 13.8803 25.1807 13.9081 24.716 13.5837C22.0529 11.6748 19.3808 9.75662 16.7177 7.83844C16.0385 7.34731 15.9402 7.34731 15.252 7.83844C12.6246 9.72882 9.99725 11.6192 7.36985 13.5096C7.17324 13.6486 6.99451 13.8154 6.73535 13.8061C6.42256 13.7969 6.19914 13.6671 6.06509 13.3613C5.93998 13.0741 6.00253 12.8146 6.19021 12.5922C6.27957 12.4903 6.41362 12.3976 6.5298 12.3142C9.21082 10.3867 11.8829 8.4593 14.555 6.53185C14.9929 6.21678 15.4486 5.96658 15.9848 6.00365Z" fill="white"/>
<path d="M23.8581 9.35816C22.7499 8.56123 21.7133 7.8199 20.6766 7.07857C20.5068 6.95811 20.5158 6.85618 20.6409 6.70791C21.2039 6.04072 21.9635 6.15191 22.6784 6.23531C23.2415 6.29091 23.6436 6.68938 23.7955 7.28244C23.8313 7.4307 23.8492 7.57897 23.8581 7.7365C23.8581 8.2369 23.8581 8.74656 23.8581 9.35816Z" fill="white"/>
</g>
<defs>
<filter id="filter0_dd_148_377" x="0" y="0" width="32" height="30" filterUnits="userSpaceOnUse" color-interpolation-filters="sRGB">
<feFlood flood-opacity="0" result="BackgroundImageFix"/>
<feColorMatrix in="SourceAlpha" type="matrix" values="0 0 0 0 0 0 0 0 0 0 0 0 0 0 0 0 0 0 127 0" result="hardAlpha"/>
<feOffset/>
<feGaussianBlur stdDeviation="3"/>
<feComposite in2="hardAlpha" operator="out"/>
<feColorMatrix type="matrix" values="0 0 0 0 1 0 0 0 0 1 0 0 0 0 1 0 0 0 0.6 0"/>
<feBlend mode="normal" in2="BackgroundImageFix" result="effect1_dropShadow_148_377"/>
<feColorMatrix in="SourceAlpha" type="matrix" values="0 0 0 0 0 0 0 0 0 0 0 0 0 0 0 0 0 0 127 0" result="hardAlpha"/>
<feOffset dy="1.98086"/>
<feGaussianBlur stdDeviation="0.990432"/>
<feComposite in2="hardAlpha" operator="out"/>
<feColorMatrix type="matrix" values="0 0 0 0 0 0 0 0 0 0 0 0 0 0 0 0 0 0 0.25 0"/>
<feBlend mode="normal" in2="effect1_dropShadow_148_377" result="effect2_dropShadow_148_377"/>
<feBlend mode="normal" in="SourceGraphic" in2="effect2_dropShadow_148_377" result="shape"/>
</filter>
</defs>
</svg>
