<svg width="15" height="14" viewBox="0 0 15 14" fill="none" xmlns="http://www.w3.org/2000/svg">
<path fill-rule="evenodd" clip-rule="evenodd" d="M5.99672 6.35451C5.70505 6.35451 5.47443 6.58117 5.47443 6.86784C5.47443 7.14784 5.70505 7.38117 5.99672 7.38117H10.0665V10.5678C10.0665 12.2012 8.71668 13.5345 7.04808 13.5345H3.74478C2.08296 13.5345 0.733154 12.2078 0.733154 10.5745V3.16784C0.733154 1.52784 2.08974 0.201172 3.75157 0.201172H7.06164C8.71668 0.201172 10.0665 1.52784 10.0665 3.16117V6.35451H5.99672ZM12.4866 4.56141L14.4333 6.50141C14.5333 6.60141 14.5866 6.72807 14.5866 6.86807C14.5866 7.00141 14.5333 7.13474 14.4333 7.22807L12.4866 9.16807C12.3866 9.26807 12.2533 9.32141 12.1266 9.32141C11.9933 9.32141 11.8599 9.26807 11.7599 9.16807C11.5599 8.96807 11.5599 8.64141 11.7599 8.44141L12.8266 7.38141H10.0666V6.35474H12.8266L11.7599 5.29474C11.5599 5.09474 11.5599 4.76807 11.7599 4.56808C11.9599 4.36141 12.2866 4.36141 12.4866 4.56141Z" fill="#6B7A99"/>
</svg>
