<svg width="34" height="37" viewBox="0 0 34 37" fill="none" xmlns="http://www.w3.org/2000/svg">
<g filter="url(#filter0_dd_148_370)">
<path d="M16.9819 27.6421C16.0542 27.6421 15.1265 27.6421 14.1916 27.6421C13.5973 27.6421 13.3292 27.3304 13.4234 26.7506C13.5248 26.0694 13.5973 25.3881 13.735 24.7141C13.9959 23.4241 14.8004 22.7935 16.0977 22.7935C16.7137 22.7935 17.3297 22.7935 17.9458 22.7935C19.1633 22.7935 19.9968 23.4241 20.2504 24.6127C20.4099 25.3664 20.5041 26.1346 20.6056 26.8956C20.6636 27.3377 20.3519 27.6421 19.8808 27.6421C18.9169 27.6421 17.9458 27.6421 16.9819 27.6421Z" fill="white"/>
<path d="M13.9597 18.0247C13.9524 19.4452 12.7711 20.6193 11.3434 20.6121C9.93738 20.5976 8.77779 19.4307 8.77054 18.0175C8.76329 16.5898 9.93738 15.4157 11.3651 15.4157C12.7856 15.4157 13.9597 16.597 13.9597 18.0247ZM13.0683 16.9666C13.0683 16.8579 13.0103 16.7782 12.9233 16.7275C12.7784 16.6477 12.6697 16.7275 12.5682 16.8217C12.1406 17.2493 11.713 17.6769 11.2854 18.0972C11.097 18.2857 10.923 18.5683 10.7056 18.6118C10.4882 18.6553 10.3432 18.3146 10.1476 18.148C10.0171 18.0392 9.8794 17.9523 9.73445 18.0972C9.575 18.2567 9.66197 18.4016 9.79967 18.5321C10.0098 18.735 10.2128 18.9379 10.4157 19.1481C10.6041 19.3583 10.7708 19.3438 10.9593 19.1481C11.597 18.5031 12.2348 17.8653 12.8798 17.2275C12.9668 17.1551 13.0538 17.0826 13.0683 16.9666Z" fill="white"/>
<path d="M19.1706 19.8946C19.1633 21.0687 18.1632 22.0616 16.9891 22.0543C15.8078 22.0471 14.8221 21.0397 14.8366 19.8656C14.8511 18.706 15.844 17.7204 16.9964 17.7276C18.1777 17.7276 19.1706 18.7205 19.1706 19.8946Z" fill="white"/>
<path d="M20.765 19.0031C20.6925 18.8147 20.6636 18.59 20.4026 18.5683C20.0475 18.5321 20.0548 18.2712 20.0548 18.0103C20.0475 17.7349 20.0693 17.5247 20.4099 17.4522C20.7288 17.3797 20.8447 17.0898 20.6636 16.8289C20.4606 16.5245 20.6346 16.3723 20.8157 16.1839C20.9969 15.9955 21.1564 15.8288 21.4535 16.0317C21.7289 16.2201 22.0043 16.0969 22.0768 15.7708C22.1493 15.4229 22.3884 15.4157 22.6421 15.4157C22.903 15.4157 23.1349 15.4229 23.2001 15.778C23.2654 16.1042 23.5553 16.2201 23.8307 16.0245C24.1351 15.8143 24.2945 16.0027 24.4684 16.1839C24.6496 16.3651 24.8236 16.5245 24.6206 16.8217C24.4322 17.0971 24.5482 17.3797 24.8815 17.445C25.2294 17.5174 25.2294 17.7566 25.2294 18.0103C25.2294 18.2712 25.2222 18.5031 24.8743 18.5756C24.5482 18.6408 24.4322 18.9234 24.6279 19.1988C24.8381 19.5032 24.6496 19.6554 24.4684 19.8366C24.2873 20.025 24.1206 20.1917 23.8234 19.9816C23.5553 19.7931 23.2726 19.9163 23.2001 20.2425C23.1277 20.5903 22.903 20.5976 22.6348 20.5976C22.3667 20.5976 22.1493 20.5758 22.0768 20.2425C22.0116 19.9381 21.7217 19.8004 21.4825 19.9671C21.1781 20.1845 21.0042 20.025 20.8085 19.8294C20.6056 19.6264 20.4389 19.438 20.6853 19.1553C20.7215 19.1264 20.736 19.0611 20.765 19.0031ZM22.6348 19.5974C23.5045 19.5974 24.2293 18.8654 24.2148 18.003C24.2075 17.1478 23.4973 16.4376 22.6421 16.4303C21.7941 16.4231 21.0694 17.1406 21.0622 17.9958C21.0549 18.8582 21.7724 19.5902 22.6348 19.5974Z" fill="white"/>
<path d="M14.9019 10.3207C14.9743 10.3207 15.0468 10.3135 15.1193 10.3207C15.4889 10.3497 15.7715 10.3497 15.8803 9.84242C15.989 9.3351 16.5905 9.05245 17.1123 9.09593C17.6341 9.13942 18.1052 9.52353 18.2067 10.0526C18.2574 10.299 18.3589 10.328 18.5618 10.328C18.9604 10.3207 19.359 10.328 19.7576 10.3207C19.9243 10.3207 20.0113 10.3642 19.9895 10.5454C19.9895 10.5599 19.9895 10.5672 19.9895 10.5817C20.033 11.4876 20.033 11.4876 19.1778 11.7847C18.8227 11.9079 18.4676 12.0239 18.1197 12.1543C17.9675 12.2123 17.9023 12.2196 17.8588 12.0166C17.7646 11.5673 17.4022 11.2847 16.9891 11.2919C16.576 11.2919 16.2354 11.5745 16.1267 12.0239C16.0904 12.1833 16.0614 12.2196 15.8948 12.1616C15.3729 11.9732 14.8511 11.7992 14.3221 11.618C14.1046 11.5456 14.0032 11.3934 13.9887 11.1542C13.9597 10.3207 13.9524 10.3207 14.7931 10.3207C14.8294 10.3207 14.8656 10.3207 14.9019 10.3207ZM16.9891 10.3207C17.1703 10.3207 17.3515 10.3135 17.5254 10.3207C17.7573 10.3352 17.7501 10.2265 17.6776 10.0526C17.4602 9.54527 16.7789 9.44381 16.4383 9.87141C16.3513 9.98012 16.2354 10.1106 16.3006 10.2555C16.3586 10.3787 16.518 10.3063 16.6267 10.3135C16.7427 10.328 16.8659 10.3207 16.9891 10.3207Z" fill="white"/>
<path d="M14.2641 12.1254C14.8511 12.3283 15.3874 12.5167 15.9165 12.6979C16.0469 12.7414 16.1049 12.8066 16.1267 12.9516C16.2209 13.4734 16.5253 13.7415 16.9891 13.7488C17.4602 13.756 17.7936 13.4734 17.8733 12.9733C17.895 12.8211 17.953 12.7486 18.1052 12.6979C18.5763 12.5457 19.0401 12.379 19.504 12.2123C19.6924 12.1398 19.7576 12.1761 19.7504 12.3863C19.7359 12.9298 19.7504 13.4734 19.7431 14.0169C19.7359 14.401 19.5982 14.546 19.2213 14.546C17.7356 14.5532 16.2499 14.546 14.7642 14.546C14.4308 14.546 14.2641 14.3865 14.2641 14.0677C14.2568 13.4371 14.2641 12.8066 14.2641 12.1254Z" fill="white"/>
<path d="M13.4161 12.7269C13.5393 12.7486 13.6408 12.7994 13.6698 12.9153C13.706 13.0458 13.6625 13.1545 13.5466 13.227C13.1842 13.4661 12.8508 13.7488 12.5609 14.0749C12.4015 14.2561 12.2493 14.4445 12.1044 14.633C11.9956 14.7634 11.8652 14.8141 11.7275 14.7199C11.5825 14.6185 11.6043 14.4663 11.6913 14.3358C12.1188 13.727 12.6407 13.2197 13.2639 12.8066C13.3074 12.7704 13.3654 12.7486 13.4161 12.7269Z" fill="white"/>
<path d="M22.3812 14.488C22.3812 14.6185 22.345 14.7054 22.2435 14.7417C22.1348 14.7852 22.0188 14.7707 21.9463 14.6764C21.5187 14.1039 21.0259 13.6038 20.4316 13.198C20.3084 13.111 20.2939 12.9733 20.3882 12.8501C20.4679 12.7414 20.5838 12.7051 20.707 12.7849C21.3666 13.2052 21.9101 13.7415 22.3522 14.3865C22.3667 14.4155 22.3739 14.4663 22.3812 14.488Z" fill="white"/>
<path d="M16.6412 12.5022C16.6412 12.379 16.634 12.2631 16.6412 12.1398C16.663 11.9224 16.8007 11.821 17.0036 11.821C17.2065 11.821 17.3515 11.9224 17.366 12.1398C17.3805 12.379 17.3732 12.6182 17.3732 12.8573C17.366 13.1038 17.2355 13.2342 16.9891 13.227C16.7572 13.2197 16.6412 13.082 16.634 12.8573C16.634 12.7414 16.634 12.6182 16.6412 12.5022C16.634 12.5022 16.634 12.5022 16.6412 12.5022Z" fill="white"/>
<path d="M23.7002 18.0103C23.7002 18.5973 23.2364 19.0756 22.6566 19.0829C22.0768 19.0901 21.5695 18.5756 21.5767 18.003C21.584 17.4305 22.0768 16.9521 22.6493 16.9521C23.2364 16.9521 23.693 17.416 23.7002 18.0103Z" fill="white"/>
</g>
<defs>
<filter id="filter0_dd_148_370" x="0.090395" y="0.41144" width="33.8191" height="35.9108" filterUnits="userSpaceOnUse" color-interpolation-filters="sRGB">
<feFlood flood-opacity="0" result="BackgroundImageFix"/>
<feColorMatrix in="SourceAlpha" type="matrix" values="0 0 0 0 0 0 0 0 0 0 0 0 0 0 0 0 0 0 127 0" result="hardAlpha"/>
<feOffset/>
<feGaussianBlur stdDeviation="4.34006"/>
<feComposite in2="hardAlpha" operator="out"/>
<feColorMatrix type="matrix" values="0 0 0 0 1 0 0 0 0 1 0 0 0 0 1 0 0 0 0.6 0"/>
<feBlend mode="normal" in2="BackgroundImageFix" result="effect1_dropShadow_148_370"/>
<feColorMatrix in="SourceAlpha" type="matrix" values="0 0 0 0 0 0 0 0 0 0 0 0 0 0 0 0 0 0 127 0" result="hardAlpha"/>
<feOffset dy="1.98086"/>
<feGaussianBlur stdDeviation="0.990432"/>
<feComposite in2="hardAlpha" operator="out"/>
<feColorMatrix type="matrix" values="0 0 0 0 0 0 0 0 0 0 0 0 0 0 0 0 0 0 0.25 0"/>
<feBlend mode="normal" in2="effect1_dropShadow_148_370" result="effect2_dropShadow_148_370"/>
<feBlend mode="normal" in="SourceGraphic" in2="effect2_dropShadow_148_370" result="shape"/>
</filter>
</defs>
</svg>
